HIERARCHY
ROOT Hips
{
	OFFSET	0.00	0.00	0.00
	CHANNELS 6 Xposition Yposition Zposition Zrotation Xrotation Yrotation
	JOINT Chest
	{
		OFFSET	 0.000000	 4.570000	 0.000000
		CHANNELS 3 Zrotation Xrotation Yrotation
		JOINT Neck
		{
			OFFSET	 0.000000	 17.620001	 0.000000
			CHANNELS 3 Zrotation Xrotation Yrotation
			JOINT Head
			{
				OFFSET	 0.000000	 5.190000	 0.000000
				CHANNELS 3 Zrotation Xrotation Yrotation
				End Site 
				{
					OFFSET	 0.000000	 4.140008	 0.000000
				}
			}
		}
		JOINT LeftCollar
		{
			OFFSET	 1.060000	 15.330000	 01.760000
			CHANNELS 3 Zrotation Xrotation Yrotation
			JOINT LeftShoulder
			{
				OFFSET	 5.00000	 0.000000	 0.000000
				CHANNELS 3 Zrotation Xrotation Yrotation
				JOINT LeftElbow
				{
					OFFSET	 0.000000	-11.90000	 0.000000
					CHANNELS 3 Zrotation Xrotation Yrotation
					JOINT LeftWrist
					{
						OFFSET	 0.000000	-9.520000	 0.000000
						CHANNELS 3 Zrotation Xrotation Yrotation
						End Site 
						{
							OFFSET	 0.000000	-7.0	 0.000000
						}
					}
				}
			}
		}
		JOINT RightCollar
		{
			OFFSET	-1.060000	 15.330000	 01.760000
			CHANNELS 3 Zrotation Xrotation Yrotation
			JOINT RightShoulder
			{
				OFFSET	-5.000000	 0.000000	 0.000000
				CHANNELS 3 Zrotation Xrotation Yrotation
				JOINT RightElbow
				{
					OFFSET	 0.000000	-11.900000	 0.000000
					CHANNELS 3 Zrotation Xrotation Yrotation
					JOINT RightWrist
					{
						OFFSET	 0.000000	-9.520000	 0.000000
						CHANNELS 3 Zrotation Xrotation Yrotation
						End Site 
						{
							OFFSET	 0.000000	-7.0	 0.000000
						}
					}
				}
			}
		}
	}
	JOINT LeftHip
	{
		OFFSET	 3.430000	 0.000000	 0.000000
		CHANNELS 3 Zrotation Xrotation Yrotation
		JOINT LeftKnee
		{
			OFFSET	 0.000000	-19.0	 0.000000
			CHANNELS 3 Zrotation Xrotation Yrotation
			JOINT LeftAnkle
			{
				OFFSET	 0.000000	-15.00000	 0.000000
				CHANNELS 3 Zrotation Xrotation Yrotation
				End Site 
				{
					OFFSET	 0.000000	-3.0	 0.000000
				}
			}
		}
	}
	JOINT RightHip
	{
		OFFSET	-3.430000	 0.000000	 0.000000
		CHANNELS 3 Zrotation Xrotation Yrotation
		JOINT RightKnee
		{
			OFFSET	 0.000000	-19.0	 0.000000
			CHANNELS 3 Zrotation Xrotation Yrotation
			JOINT RightAnkle
			{
				OFFSET	 0.000000	-15.00000	 0.000000
				CHANNELS 3 Zrotation Xrotation Yrotation
				End Site 
				{
					OFFSET	 0.000000	-3.0	 0.000000
				}
			}
		}
	}
}
MOTION
Frames: 8
Frame Time: 0.033333333
0.010345	34.729090	0.833995	-2.011511	-0.789648	6.904627	0.300505	6.938094	6.294344	-351.376039	-330.743459	-2.601719	358.387420	346.656980	-8.242806	4.787211	24.656299	3.625729	22.185581	-3.483875	12.034562	135.269598	-133.121585	65.740378	-25.374150	3.162925	56.072730	-353.141234	-337.763637	-29.022337	-45.185966	-8.324531	57.290587	298.008904	299.576842	-4.647763	-141.534466	176.665037	99.924258	-4.194115	17.040437	17.198163	7.133949	3.749285	1.156672	-355.525980	-349.444899	-25.366328	-351.749678	-343.328738	-0.753892	354.455471	-358.266717	-1.069007	-351.453029	-344.872252	-6.262774	
0.019510	34.709489	0.832247	-1.936929	-0.658205	7.120351	0.193165	6.828914	6.287553	-351.354784	-330.917875	-2.581036	358.218687	346.770989	-8.253787	5.434185	24.684390	2.896201	21.323222	-3.658048	11.551447	134.475083	-133.551997	66.065727	-25.120112	2.208772	55.663339	-353.129759	-337.783581	-29.134622	-44.901946	-8.598316	57.412957	297.039017	297.844133	-6.315714	-143.635336	175.939753	100.316625	-4.316876	16.845234	17.209044	7.240778	3.796854	1.167969	-356.249844	-348.882611	-25.839015	-352.214295	-343.713087	-0.666015	355.144009	-357.754343	-0.893939	-351.783310	-345.042651	-6.651866	
-0.053442	34.629365	0.883424	-2.601870	-0.698811	6.810140	0.796100	6.678196	6.357691	-351.647826	-331.069450	-2.472740	358.340565	347.019718	-8.039142	6.566309	24.682807	3.005867	19.892898	-4.041775	10.744205	134.219101	-134.535312	67.911005	-24.266681	0.674778	55.065035	-353.880888	-337.743064	-28.849161	-44.062273	-8.477461	57.883447	295.099763	296.498668	-9.235706	-144.138871	175.779462	100.439787	-3.316811	17.045794	17.154991	6.885859	3.745954	1.117315	-357.039168	-348.418076	-25.700606	-351.207006	-343.513208	-0.762194	354.829028	-358.091645	-0.981269	-351.688507	-344.972382	-6.304224	
-0.159605	34.549199	0.956530	-3.539522	-0.883551	6.251682	1.703863	6.599179	6.461394	-352.122716	-331.174417	-2.320599	358.546017	347.473761	-7.747117	7.431429	24.659540	3.651428	18.720332	-4.307197	10.085981	134.201629	-135.812420	71.771025	-23.098866	-1.346105	54.393921	-354.777091	-337.672413	-28.375250	-43.290452	-8.338088	58.322881	293.009261	295.386057	-13.046531	-143.737529	175.489534	100.391969	-1.873710	17.506929	17.061614	6.308294	3.661267	1.033826	-357.411058	-348.373707	-25.085507	-349.071397	-342.462233	-1.120594	353.130770	-359.814902	-1.506219	-351.464695	-344.089785	-5.413758	
-0.184719	34.550150	0.939362	-3.702774	-0.700956	6.218389	1.872036	6.413827	6.492455	-352.260631	-331.384240	-2.251850	358.486212	347.899364	-7.764581	7.538982	24.660935	3.616615	18.443160	-4.371180	9.930416	134.596770	-136.677887	77.985049	-22.141714	-3.294143	53.856774	-354.744989	-337.651922	-28.260942	-43.469194	-8.661355	58.186612	291.975689	294.554659	-17.367856	-143.149109	174.577950	100.247797	-1.644292	17.203390	17.072039	6.259738	3.801681	1.011190	-357.327893	-348.451134	-24.995473	-348.209974	-342.152115	-1.265443	351.912865	359.093989	-1.927680	-351.117339	-343.441491	-5.118463	
-0.149785	34.576969	0.815703	-3.319940	0.161257	6.580934	1.435449	5.805309	6.477913	-352.107662	-331.757606	-2.242217	358.268465	347.940837	-8.056391	7.479918	24.681759	3.059573	18.298541	-4.458301	9.846579	135.470965	-137.062509	85.586079	-21.746287	-4.713386	53.492411	-354.235184	-337.686811	-28.502495	-44.129199	-9.346656	57.744521	291.049324	294.113238	-20.724410	-142.191011	173.948794	100.036491	-2.372252	15.742168	17.182146	6.718580	4.256561	1.032537	-356.891718	-348.623009	-25.438460	-349.028094	-343.773220	-0.859994	352.181537	-359.751436	-1.712112	-350.973851	-343.823216	-5.664724	
-0.104799	34.479727	0.673946	-2.723958	1.739070	6.686864	0.675289	4.468923	6.440977	-352.146157	-332.251101	-2.161783	358.126452	347.854695	-8.173123	8.298884	24.677705	3.173219	17.073891	-4.711545	9.161712	136.279223	-137.373569	92.216792	-21.328920	-6.255426	53.061047	-354.825066	-337.728939	-28.691643	-43.815758	-9.876358	57.851004	286.484900	294.459419	-19.234502	-139.060271	176.553910	99.689149	-3.541813	13.524517	17.265529	7.393794	4.821753	1.063565	-356.016306	-349.311683	-25.556793	-350.754192	-346.626107	-0.255507	353.457307	-357.584435	-1.189171	-351.254845	-344.644834	-6.127743	
-0.207228	34.432785	0.754104	-3.217536	1.392317	5.860462	1.067374	4.591158	6.492553	-352.549193	-332.225774	-2.057175	358.385862	347.720194	-7.143561	8.280038	24.628541	4.391807	16.769113	-4.643446	8.997018	136.352579	-138.004364	96.791223	-21.353211	-8.154745	52.342084	-355.627368	-337.628563	-28.049805	-43.152769	-10.184473	58.174864	284.455460	294.951520	-17.480984	-137.432514	179.033200	99.641297	-2.609523	14.236994	17.251116	6.875679	4.742897	0.999656	-355.120568	-350.316732	-24.375560	-350.158353	-346.697934	-0.249103	353.718166	-356.597145	-1.035567	-351.833280	-345.106937	-5.428961	
